<svg width="20" height="21" viewBox="0 0 20 21" fill="none" xmlns="http://www.w3.org/2000/svg">
<path d="M1 7.5H19M5 1.5V3.5M15 1.5V3.5M4 11.5H6M4 15.5H6M9 11.5H11M9 15.5H11M14 11.5H16M14 15.5H16M4.2 19.5H15.8C16.9201 19.5 17.4802 19.5 17.908 19.282C18.2843 19.0903 18.5903 18.7843 18.782 18.408C19 17.9802 19 17.4201 19 16.3V6.7C19 5.57989 19 5.01984 18.782 4.59202C18.5903 4.21569 18.2843 3.90973 17.908 3.71799C17.4802 3.5 16.9201 3.5 15.8 3.5H4.2C3.0799 3.5 2.51984 3.5 2.09202 3.71799C1.71569 3.90973 1.40973 4.21569 1.21799 4.59202C1 5.01984 1 5.57989 1 6.7V16.3C1 17.4201 1 17.9802 1.21799 18.408C1.40973 18.7843 1.71569 19.0903 2.09202 19.282C2.51984 19.5 3.07989 19.5 4.2 19.5Z" stroke="#0A56E0" stroke-width="1.5" stroke-linecap="round" stroke-linejoin="round"/>
</svg>
