<svg width="16" height="16" viewBox="0 0 16 16" fill="none" xmlns="http://www.w3.org/2000/svg">
<path fill-rule="evenodd" clip-rule="evenodd" d="M4.80156 1.59961C4.58939 1.59961 4.38591 1.68389 4.23588 1.83392C4.08585 1.98395 4.00156 2.18744 4.00156 2.39961V3.19961H3.20156C2.77722 3.19961 2.37025 3.36818 2.07019 3.66824C1.77013 3.9683 1.60156 4.37526 1.60156 4.79961V12.7996C1.60156 13.224 1.77013 13.6309 2.07019 13.931C2.37025 14.231 2.77722 14.3996 3.20156 14.3996H12.8016C13.2259 14.3996 13.6329 14.231 13.9329 13.931C14.233 13.6309 14.4016 13.224 14.4016 12.7996V4.79961C14.4016 4.37526 14.233 3.9683 13.9329 3.66824C13.6329 3.36818 13.2259 3.19961 12.8016 3.19961H12.0016V2.39961C12.0016 2.18744 11.9173 1.98395 11.7672 1.83392C11.6172 1.68389 11.4137 1.59961 11.2016 1.59961C10.9894 1.59961 10.7859 1.68389 10.6359 1.83392C10.4858 1.98395 10.4016 2.18744 10.4016 2.39961V3.19961H5.60156V2.39961C5.60156 2.18744 5.51728 1.98395 5.36725 1.83392C5.21722 1.68389 5.01374 1.59961 4.80156 1.59961ZM4.80156 5.59961C4.58939 5.59961 4.38591 5.6839 4.23588 5.83392C4.08585 5.98395 4.00156 6.18744 4.00156 6.39961C4.00156 6.61178 4.08585 6.81527 4.23588 6.96529C4.38591 7.11532 4.58939 7.19961 4.80156 7.19961H11.2016C11.4137 7.19961 11.6172 7.11532 11.7672 6.96529C11.9173 6.81527 12.0016 6.61178 12.0016 6.39961C12.0016 6.18744 11.9173 5.98395 11.7672 5.83392C11.6172 5.6839 11.4137 5.59961 11.2016 5.59961H4.80156Z" fill="#A8D2FC"/>
</svg>
