<svg width="15" height="16" viewBox="0 0 15 16" fill="none" xmlns="http://www.w3.org/2000/svg">
<g clip-path="url(#clip0_73_9684)">
<path d="M7.23809 8C8.33504 8 9.38707 7.57857 10.1627 6.82843C10.9384 6.07828 11.3741 5.06087 11.3741 4C11.3741 2.93913 10.9384 1.92172 10.1627 1.17157C9.38707 0.421427 8.33504 0 7.23809 0C6.14114 0 5.08912 0.421427 4.31346 1.17157C3.5378 1.92172 3.10204 2.93913 3.10204 4C3.10204 5.06087 3.5378 6.07828 4.31346 6.82843C5.08912 7.57857 6.14114 8 7.23809 8ZM4.13605 9.725C1.7449 10.4031 0 12.5406 0 15.0719C0 15.5844 0.429762 16 0.959694 16H13.5165C14.0464 16 14.4762 15.5844 14.4762 15.0719C14.4762 12.5406 12.7313 10.4031 10.3401 9.725V11.3125C11.232 11.5344 11.8912 12.3188 11.8912 13.25V14.5C11.8912 14.775 11.6585 15 11.3741 15H10.8571C10.5728 15 10.3401 14.775 10.3401 14.5C10.3401 14.225 10.5728 14 10.8571 14V13.25C10.8571 12.6969 10.3951 12.25 9.82313 12.25C9.25119 12.25 8.78911 12.6969 8.78911 13.25V14C9.07347 14 9.30612 14.225 9.30612 14.5C9.30612 14.775 9.07347 15 8.78911 15H8.27211C7.98775 15 7.7551 14.775 7.7551 14.5V13.25C7.7551 12.3188 8.41428 11.5344 9.30612 11.3125V9.52812C9.11224 9.50937 8.91514 9.5 8.7148 9.5H5.76139C5.56105 9.5 5.36395 9.50937 5.17007 9.52812V11.5719C5.9165 11.7875 6.46258 12.4563 6.46258 13.25C6.46258 14.2156 5.65153 15 4.65306 15C3.65459 15 2.84354 14.2156 2.84354 13.25C2.84354 12.4563 3.38963 11.7875 4.13605 11.5719V9.725ZM4.65306 14C4.85874 14 5.05599 13.921 5.20143 13.7803C5.34687 13.6397 5.42857 13.4489 5.42857 13.25C5.42857 13.0511 5.34687 12.8603 5.20143 12.7197C5.05599 12.579 4.85874 12.5 4.65306 12.5C4.44738 12.5 4.25013 12.579 4.10469 12.7197C3.95926 12.8603 3.87755 13.0511 3.87755 13.25C3.87755 13.4489 3.95926 13.6397 4.10469 13.7803C4.25013 13.921 4.44738 14 4.65306 14Z" fill="#A8D2FC"/>
</g>
<defs>
<clipPath id="clip0_73_9684">
<rect width="14.4762" height="16" fill="white"/>
</clipPath>
</defs>
</svg>
