<svg width="20" height="20" viewBox="0 0 20 20" fill="none" xmlns="http://www.w3.org/2000/svg">
<path d="M3.85938 0.0942287C3.10938 0.359854 2.49609 0.980947 2.21875 1.75829L2.12891 2.0122V9.96142V17.9106L2.21875 18.1645C2.5 18.9497 3.12109 19.5708 3.90625 19.852L4.16016 19.9419L9.9375 19.9536C16.3867 19.9653 15.9023 19.9849 16.5234 19.6841C16.793 19.5513 16.918 19.4575 17.1875 19.1841C17.5352 18.8364 17.6953 18.5825 17.8594 18.1255L17.9492 17.8716L17.9609 11.6802C17.9688 5.69579 17.9688 5.48485 17.8945 5.37157C17.8555 5.30517 16.6953 4.07079 15.3164 2.62548L12.8086 0.000478745H8.46484H4.12109L3.85938 0.0942287ZM12.0391 2.66454C12.0508 4.09032 12.0664 4.42626 12.1133 4.57079C12.3633 5.29735 12.8555 5.79345 13.5547 6.02392C13.793 6.10204 13.9063 6.10985 15.3828 6.12548L16.9531 6.1411V11.8716C16.9531 17.5942 16.9531 17.602 16.8711 17.8442C16.6758 18.4184 16.168 18.8481 15.5586 18.9458C15.2539 18.9966 4.82422 18.9966 4.51563 18.9458C4.02344 18.8677 3.52734 18.5239 3.31641 18.1216C3.09375 17.6997 3.10938 18.2778 3.09375 10.1372C3.08984 5.39501 3.09766 2.54735 3.12109 2.3911C3.23047 1.68017 3.79297 1.09423 4.48047 0.977041C4.58203 0.961416 6.32422 0.945791 8.34766 0.941885L12.0273 0.937979L12.0391 2.66454ZM14.5742 3.33251C15.3984 4.1997 16.1172 4.95751 16.1719 5.0161L16.2695 5.12157L15.0977 5.10985L13.9258 5.09813L13.7031 4.98876C13.4258 4.85204 13.2344 4.64501 13.1289 4.35985C13.0508 4.15282 13.0469 4.06688 13.0469 2.9497C13.0469 2.29345 13.0547 1.75829 13.0625 1.75829C13.0703 1.75829 13.7539 2.46532 14.5742 3.33251Z" fill="#0A56E0"/>
<path d="M9.77667 6.68005C9.5423 6.82067 9.55011 6.69958 9.53058 9.61755L9.51105 12.2972L8.53449 11.2425C7.99933 10.6644 7.51105 10.1644 7.45245 10.1332C7.31183 10.059 7.03058 10.0629 6.9212 10.141C6.73761 10.2699 6.65949 10.6136 6.76886 10.805C6.8587 10.9652 9.72199 14.0082 9.82355 14.055C9.96808 14.1215 10.1165 14.1136 10.261 14.0316C10.3314 13.9965 11.0462 13.2582 11.8509 12.391C13.4329 10.6879 13.4212 10.7113 13.3235 10.3871C13.2923 10.2816 13.2337 10.2074 13.1517 10.1566C13.0189 10.0746 12.7376 10.0511 12.6204 10.1175C12.5814 10.1371 12.1009 10.6332 11.5579 11.2191L10.5657 12.2816L10.5462 9.60583C10.5267 7.06286 10.5228 6.93005 10.4525 6.82458C10.304 6.60192 10.0071 6.53942 9.77667 6.68005Z" fill="#0A56E0"/>
<path d="M5.92188 15.6641C5.72656 15.7266 5.54688 15.9492 5.54688 16.1328C5.54688 16.2773 5.67188 16.4883 5.79688 16.5664C5.91406 16.6367 6.07422 16.6406 10.0352 16.6406C14.0586 16.6406 14.1523 16.6406 14.2734 16.5625C14.5742 16.3789 14.5898 15.9687 14.3086 15.7539L14.168 15.6445L10.1016 15.6367C7.86328 15.6328 5.98438 15.6445 5.92188 15.6641Z" fill="#0A56E0"/>
</svg>
