<svg width="18" height="15" viewBox="0 0 18 15" fill="none" xmlns="http://www.w3.org/2000/svg">
<path d="M1.5 3.78571L6.0416 7.15949C7.11079 7.9537 7.64542 8.35085 8.22317 8.50518C8.73383 8.64149 9.26617 8.64149 9.77683 8.50518C10.3546 8.35085 10.8892 7.9537 11.9584 7.15949L16.5 3.78571M4.16667 14H13.8333C14.7667 14 15.2335 14 15.59 13.7976C15.9036 13.6196 16.1586 13.3354 16.3183 12.986C16.5 12.5888 16.5 12.0687 16.5 11.0286V3.97143C16.5 2.93134 16.5 2.41128 16.3183 2.01402C16.1586 1.66457 15.9036 1.38046 15.59 1.20242C15.2335 1 14.7667 1 13.8333 1H4.16667C3.23325 1 2.76653 1 2.41002 1.20242C2.09641 1.38046 1.84144 1.66457 1.68166 2.01402C1.5 2.41128 1.5 2.93133 1.5 3.97143V11.0286C1.5 12.0687 1.5 12.5888 1.68166 12.986C1.84144 13.3354 2.09641 13.6196 2.41002 13.7976C2.76653 14 3.23324 14 4.16667 14Z" fill="#0A56E0"/>
<path d="M1.5 3.78571L6.0416 7.15949C7.11079 7.9537 7.64542 8.35085 8.22317 8.50518C8.73383 8.64149 9.26617 8.64149 9.77683 8.50518C10.3546 8.35085 10.8893 7.9537 11.9584 7.15949L16.5 3.78571M4.16667 14H13.8333C14.7667 14 15.2335 14 15.59 13.7976C15.9036 13.6196 16.1586 13.3354 16.3183 12.986C16.5 12.5888 16.5 12.0687 16.5 11.0286V3.97143C16.5 2.93134 16.5 2.41128 16.3183 2.01402C16.1586 1.66457 15.9036 1.38046 15.59 1.20242C15.2335 1 14.7667 1 13.8333 1H4.16667C3.23325 1 2.76653 1 2.41002 1.20242C2.09641 1.38046 1.84144 1.66457 1.68166 2.01402C1.5 2.41128 1.5 2.93133 1.5 3.97143V11.0286C1.5 12.0687 1.5 12.5888 1.68166 12.986C1.84144 13.3354 2.09641 13.6196 2.41002 13.7976C2.76653 14 3.23324 14 4.16667 14Z" stroke="#DCEDFE" stroke-width="1.5" stroke-linecap="round" stroke-linejoin="round"/>
</svg>
