<svg width="14" height="14" viewBox="0 0 14 14" fill="none" xmlns="http://www.w3.org/2000/svg">
<path d="M0 1.94444C0 8.60253 5.39746 14 12.0556 14C12.3559 14 12.6537 13.989 12.9487 13.9674C13.2871 13.9426 13.4563 13.9302 13.6103 13.8416C13.7379 13.7681 13.8588 13.6379 13.9228 13.5053C14 13.3453 14 13.1585 14 12.7851V10.5939C14 10.2798 14 10.1228 13.9483 9.98822C13.9027 9.8693 13.8285 9.76344 13.7324 9.67991C13.6236 9.58533 13.4759 9.53167 13.1808 9.42433L10.6867 8.51737C10.3433 8.39253 10.1715 8.33008 10.0087 8.34065C9.86502 8.34999 9.72681 8.39907 9.60937 8.48229C9.47621 8.57663 9.38226 8.73328 9.19427 9.04664L8.55556 10.1111C6.49452 9.1777 4.8237 7.5047 3.88889 5.44444L4.95338 4.80575C5.26668 4.61777 5.42334 4.52377 5.51771 4.3906C5.60093 4.27317 5.65001 4.13495 5.65934 3.99132C5.66992 3.82843 5.60747 3.65675 5.48263 3.31337L4.57566 0.819163C4.46833 0.524035 4.41467 0.376468 4.3201 0.267633C4.23656 0.171492 4.13069 0.097339 4.01179 0.0516834C3.87719 9.45727e-08 3.72017 0 3.40614 0H1.2149C0.841462 0 0.654741 5.5631e-08 0.494651 0.0771945C0.362055 0.141136 0.231887 0.262119 0.158433 0.38969C0.0697512 0.543721 0.057361 0.712927 0.032581 1.05135C0.0109899 1.34622 0 1.64405 0 1.94444Z" fill="#0A56E0"/>
</svg>
