<svg width="14" height="17" viewBox="0 0 14 17" fill="none" xmlns="http://www.w3.org/2000/svg">
<path d="M7 16C10 13 13 10.3137 13 7C13 3.68629 10.3137 1 7 1C3.68629 1 1 3.68629 1 7C1 10.3137 4 13 7 16Z" fill="#0A56E0"/>
<path d="M7 9.33333C8.4202 9.33333 9.57143 8.21408 9.57143 6.83333C9.57143 5.45263 8.4202 4.33333 7 4.33333C5.5798 4.33333 4.42857 5.45263 4.42857 6.83333C4.42857 8.21408 5.5798 9.33333 7 9.33333Z" fill="#0A56E0"/>
<path d="M7 16C10 13 13 10.3137 13 7C13 3.68629 10.3137 1 7 1C3.68629 1 1 3.68629 1 7C1 10.3137 4 13 7 16Z" stroke="#DCEDFE" stroke-linecap="round" stroke-linejoin="round"/>
<path d="M7 9.33333C8.4202 9.33333 9.57143 8.21408 9.57143 6.83333C9.57143 5.45263 8.4202 4.33333 7 4.33333C5.5798 4.33333 4.42857 5.45263 4.42857 6.83333C4.42857 8.21408 5.5798 9.33333 7 9.33333Z" stroke="#DCEDFE" stroke-linecap="round" stroke-linejoin="round"/>
</svg>
