<svg width="32" height="32" viewBox="0 0 32 32" fill="none" xmlns="http://www.w3.org/2000/svg">
<path d="M14.1327 22.1334L23.5327 12.7334L21.666 10.8667L14.1327 18.4001L10.3327 14.6001L8.46602 16.4668L14.1327 22.1334ZM15.9994 29.3334C14.1549 29.3334 12.4216 28.9832 10.7994 28.2828C9.17713 27.5823 7.76602 26.6325 6.56602 25.4334C5.36602 24.2343 4.41624 22.8232 3.71668 21.2001C3.01713 19.577 2.66691 17.8436 2.66602 16.0001C2.66513 14.1565 3.01535 12.4232 3.71668 10.8001C4.41802 9.17697 5.3678 7.76586 6.56602 6.56675C7.76424 5.36764 9.17535 4.41786 10.7994 3.71741C12.4234 3.01697 14.1567 2.66675 15.9994 2.66675C17.842 2.66675 19.5753 3.01697 21.1994 3.71741C22.8234 4.41786 24.2345 5.36764 25.4327 6.56675C26.6309 7.76586 27.5811 9.17697 28.2834 10.8001C28.9856 12.4232 29.3354 14.1565 29.3327 16.0001C29.33 17.8436 28.9798 19.577 28.282 21.2001C27.5842 22.8232 26.6345 24.2343 25.4327 25.4334C24.2309 26.6325 22.8198 27.5828 21.1994 28.2841C19.5789 28.9854 17.8456 29.3352 15.9994 29.3334Z" fill="url(#paint0_linear_1434_10806)"/>
<defs>
<linearGradient id="paint0_linear_1434_10806" x1="27.1173" y1="1.27786" x2="4.29542" y2="6.70289" gradientUnits="userSpaceOnUse">
<stop stop-color="#6AA5AE"/>
<stop offset="1" stop-color="#3D7C85"/>
</linearGradient>
</defs>
</svg>
