<svg width="30" height="30" viewBox="0 0 30 30" fill="none" xmlns="http://www.w3.org/2000/svg">
<rect width="30" height="30" rx="5" fill="#0A56E0"/>
<path d="M20.8333 15C20.8333 18.2217 18.2217 20.8333 15 20.8333M20.8333 15C20.8333 11.7783 18.2217 9.16667 15 9.16667M20.8333 15H22.5M15 20.8333C11.7783 20.8333 9.16667 18.2217 9.16667 15M15 20.8333V22.5M15 9.16667C11.7783 9.16667 9.16667 11.7783 9.16667 15M15 9.16667V7.5M9.16667 15H7.5M17.5 15C17.5 16.3808 16.3808 17.5 15 17.5C13.6193 17.5 12.5 16.3808 12.5 15C12.5 13.6193 13.6193 12.5 15 12.5C16.3808 12.5 17.5 13.6193 17.5 15Z" stroke="white" stroke-width="1.5" stroke-linecap="round" stroke-linejoin="round"/>
</svg>
