<svg width="17" height="18" viewBox="0 0 17 18" fill="none" xmlns="http://www.w3.org/2000/svg">
<path d="M14.3333 9C14.3333 12.2217 11.7217 14.8333 8.5 14.8333M14.3333 9C14.3333 5.77834 11.7217 3.16667 8.5 3.16667M14.3333 9H16M8.5 14.8333C5.27834 14.8333 2.66667 12.2217 2.66667 9M8.5 14.8333V16.5M8.5 3.16667C5.27834 3.16667 2.66667 5.77834 2.66667 9M8.5 3.16667V1.5M2.66667 9H1M11 9C11 10.3808 9.88075 11.5 8.5 11.5C7.11925 11.5 6 10.3808 6 9C6 7.61925 7.11925 6.5 8.5 6.5C9.88075 6.5 11 7.61925 11 9Z" stroke="#0A56E0" stroke-width="1.5" stroke-linecap="round" stroke-linejoin="round"/>
</svg>
