<svg width="204" height="49" viewBox="0 0 204 49" fill="none" xmlns="http://www.w3.org/2000/svg">
<rect opacity="0.9" x="30.2109" y="2.9668" width="15.4549" height="42.8321" rx="7.72744" fill="#FD9886" fill-opacity="0.6"/>
<path d="M45.662 11.0639C45.662 15.5358 45.662 28.5777 45.662 28.5777L30.2071 12.9021C29.7656 7.60369 32.1942 2.96701 37.7137 2.9668C42.7918 2.9666 45.662 6.59198 45.662 11.0639Z" fill="#FD9886"/>
<rect opacity="0.9" x="3.26562" y="3.41211" width="15.8964" height="42.1697" rx="7.94822" fill="#A8D2FC"/>
<path d="M3.26629 37.7037C3.26629 33.2318 3.26629 20.1898 3.26629 20.1898L19.1629 36.0863C19.6046 42.489 16.3695 45.8008 11.3634 45.8008C6.79912 45.8008 3.26629 42.1756 3.26629 37.7037Z" fill="#0A56E0" fill-opacity="0.6"/>
<rect opacity="0.9" y="11.0684" width="15.6523" height="53.6417" rx="7.82617" transform="rotate(-45 0 11.0684)" fill="url(#paint0_linear_73_9213)" fill-opacity="0.6"/>
<path d="M58.0945 22V5.77039H61.5722V12.1463H68.5278V5.77039H72.0056V22H68.5278V15.3922H61.5722V22H58.0945ZM81.9815 22V20.6089H81.8656C81.5874 20.9489 81.3014 21.2194 81.0077 21.4204C80.3276 21.9614 79.493 22.2319 78.5037 22.2319C77.4681 22.2319 76.6258 21.9304 75.9766 21.3276C75.3428 20.7094 75.026 19.9288 75.026 18.9859C75.026 18.0585 75.3197 17.2702 75.907 16.621C76.5098 15.9564 77.3368 15.5313 78.3878 15.3459L81.9815 14.6967C81.9197 14.2639 81.7188 13.9084 81.3787 13.6302C81.0387 13.3365 80.5827 13.1896 80.0108 13.1896C79.2998 13.1896 78.6738 13.406 78.1328 13.8388C77.8546 14.0398 77.6304 14.2484 77.4604 14.4648L75.6056 12.61C75.9457 12.1927 76.3398 11.8294 76.788 11.5203C77.87 10.7784 79.0216 10.4074 80.2426 10.4074C81.6647 10.4074 82.8316 10.8402 83.7436 11.7058C84.6555 12.5714 85.1115 13.6456 85.1115 14.9285V22H81.9815ZM81.9815 17.1311V16.8993L79.4312 17.363C78.581 17.533 78.156 17.9194 78.156 18.5222C78.156 19.2951 78.6197 19.6815 79.5471 19.6815C80.2426 19.6815 80.8223 19.4419 81.286 18.9627C81.7497 18.4836 81.9815 17.873 81.9815 17.1311ZM88.1265 26.8689V10.6393H91.2565V12.2622H91.3724C91.5888 11.9376 91.8825 11.6285 92.2534 11.3348C93.0881 10.7166 93.9923 10.4074 94.9661 10.4074C96.3418 10.4074 97.5319 10.9716 98.5366 12.0999C99.5568 13.2283 100.067 14.6348 100.067 16.3196C100.067 18.0199 99.5568 19.4342 98.5366 20.5625C97.5319 21.6754 96.3418 22.2319 94.9661 22.2319C93.9923 22.2319 93.0881 21.9227 92.2534 21.3044C91.8825 21.0108 91.5888 20.7016 91.3724 20.377H91.2565V26.8689H88.1265ZM91.9752 18.4759C92.5317 19.0478 93.2195 19.3337 94.0387 19.3337C94.8579 19.3337 95.5457 19.0478 96.1022 18.4759C96.6586 17.904 96.9369 17.1852 96.9369 16.3196C96.9369 15.4541 96.6586 14.7353 96.1022 14.1634C95.5457 13.5915 94.8579 13.3056 94.0387 13.3056C93.2195 13.3056 92.5317 13.5915 91.9752 14.1634C91.4188 14.7353 91.1406 15.4541 91.1406 16.3196C91.1406 17.1852 91.4188 17.904 91.9752 18.4759ZM102.391 22V10.6393H105.521V15.2763L109.578 10.6393H113.288L109.114 15.3922L113.52 22H109.926L107.028 17.5948L105.521 19.3337V22H102.391ZM117.954 18.4759C118.511 19.0478 119.199 19.3337 120.018 19.3337C120.837 19.3337 121.525 19.0478 122.081 18.4759C122.638 17.904 122.916 17.1852 122.916 16.3196C122.916 15.4541 122.638 14.7353 122.081 14.1634C121.525 13.5915 120.837 13.3056 120.018 13.3056C119.199 13.3056 118.511 13.5915 117.954 14.1634C117.398 14.7353 117.12 15.4541 117.12 16.3196C117.12 17.1852 117.398 17.904 117.954 18.4759ZM115.752 20.493C114.577 19.3337 113.99 17.9426 113.99 16.3196C113.99 14.6967 114.577 13.3056 115.752 12.1463C116.926 10.9871 118.349 10.4074 120.018 10.4074C121.687 10.4074 123.109 10.9871 124.284 12.1463C125.459 13.3056 126.046 14.6967 126.046 16.3196C126.046 17.9426 125.459 19.3337 124.284 20.493C123.109 21.6522 121.687 22.2319 120.018 22.2319C118.349 22.2319 116.926 21.6522 115.752 20.493Z" fill="#68A1F8"/>
<path d="M128.941 22V5.77039H142.736V22H139.258V9.01631H132.418V22H128.941ZM146.338 26.8689V10.6393H149.468V12.2622H149.584C149.801 11.9376 150.094 11.6285 150.465 11.3348C151.3 10.7166 152.204 10.4074 153.178 10.4074C154.554 10.4074 155.744 10.9716 156.749 12.0999C157.769 13.2283 158.279 14.6348 158.279 16.3196C158.279 18.0199 157.769 19.4342 156.749 20.5625C155.744 21.6754 154.554 22.2319 153.178 22.2319C152.204 22.2319 151.3 21.9227 150.465 21.3044C150.094 21.0108 149.801 20.7016 149.584 20.377H149.468V26.8689H146.338ZM150.187 18.4759C150.744 19.0478 151.431 19.3337 152.251 19.3337C153.07 19.3337 153.758 19.0478 154.314 18.4759C154.871 17.904 155.149 17.1852 155.149 16.3196C155.149 15.4541 154.871 14.7353 154.314 14.1634C153.758 13.5915 153.07 13.3056 152.251 13.3056C151.431 13.3056 150.744 13.5915 150.187 14.1634C149.631 14.7353 149.353 15.4541 149.353 16.3196C149.353 17.1852 149.631 17.904 150.187 18.4759ZM163.872 18.4759C164.428 19.0478 165.116 19.3337 165.935 19.3337C166.755 19.3337 167.442 19.0478 167.999 18.4759C168.555 17.904 168.833 17.1852 168.833 16.3196C168.833 15.4541 168.555 14.7353 167.999 14.1634C167.442 13.5915 166.755 13.3056 165.935 13.3056C165.116 13.3056 164.428 13.5915 163.872 14.1634C163.315 14.7353 163.037 15.4541 163.037 16.3196C163.037 17.1852 163.315 17.904 163.872 18.4759ZM161.669 20.493C160.495 19.3337 159.907 17.9426 159.907 16.3196C159.907 14.6967 160.495 13.3056 161.669 12.1463C162.844 10.9871 164.266 10.4074 165.935 10.4074C167.605 10.4074 169.027 10.9871 170.201 12.1463C171.376 13.3056 171.963 14.6967 171.963 16.3196C171.963 17.9426 171.376 19.3337 170.201 20.493C169.027 21.6522 167.605 22.2319 165.935 22.2319C164.266 22.2319 162.844 21.6522 161.669 20.493ZM182.973 13.3056V19.5656C183.9 19.5037 184.65 19.1869 185.222 18.615C185.809 18.0431 186.103 17.3166 186.103 16.4356C186.103 15.5545 185.809 14.8281 185.222 14.2562C184.65 13.6843 183.9 13.3674 182.973 13.3056ZM179.843 26.8689V22.3478C177.942 22.2241 176.419 21.6213 175.275 20.5393C174.147 19.4419 173.583 18.074 173.583 16.4356C173.583 14.7971 174.147 13.437 175.275 12.355C176.419 11.2575 177.942 10.647 179.843 10.5233V5.77039H182.973V10.5233C184.874 10.647 186.389 11.2575 187.517 12.355C188.661 13.437 189.233 14.7971 189.233 16.4356C189.233 18.074 188.661 19.4419 187.517 20.5393C186.389 21.6213 184.874 22.2241 182.973 22.3478V26.8689H179.843ZM179.843 19.5656V13.3056C178.915 13.3674 178.158 13.6843 177.571 14.2562C176.999 14.8281 176.713 15.5545 176.713 16.4356C176.713 17.3166 176.999 18.0431 177.571 18.615C178.158 19.1869 178.915 19.5037 179.843 19.5656ZM191.554 22V10.6393H194.684V17.1311L199.553 10.6393H202.335V22H199.205V15.5082L194.336 22H191.554Z" fill="#FD9886"/>
<path opacity="0.6" d="M57.5728 44V33.5667H58.6907V38.1872H64.5035V33.5667H65.6214V44H64.5035V39.2305H58.6907V44H57.5728ZM72.7011 44V43.0312C72.5521 43.2399 72.3633 43.4287 72.1347 43.5976C71.6081 43.9652 71.0268 44.149 70.3909 44.149C69.6655 44.149 69.0594 43.9404 68.5725 43.523C68.0956 43.0958 67.8571 42.6089 67.8571 42.0624C67.8571 40.8501 68.5526 40.1297 69.9437 39.9012L72.7011 39.4541C72.7011 38.9274 72.5322 38.5002 72.1944 38.1722C71.8665 37.8344 71.4392 37.6655 70.9126 37.6655C70.3959 37.6655 69.904 37.8394 69.437 38.1872C69.2184 38.3759 69.0395 38.5498 68.9004 38.7088L68.2297 38.0381C68.4185 37.7897 68.652 37.5661 68.9302 37.3674C69.5363 36.9202 70.1971 36.6967 70.9126 36.6967C71.7273 36.6967 72.403 36.96 72.9396 37.4866C73.4762 38.0133 73.7445 38.6691 73.7445 39.4541V44H72.7011ZM72.7011 40.7955V40.3483L70.2418 40.7955C69.3476 40.9545 68.9004 41.3768 68.9004 42.0624C68.9004 42.3804 69.0296 42.6486 69.2879 42.8672C69.5562 43.0759 69.9239 43.1802 70.3909 43.1802C71.0765 43.1802 71.6329 42.9616 72.0602 42.5244C72.4875 42.0872 72.7011 41.5109 72.7011 40.7955ZM76.1222 47.13V36.8457H77.1656V37.8891C77.3345 37.6605 77.5382 37.4618 77.7767 37.2929C78.3132 36.8954 78.9293 36.6967 79.6248 36.6967C80.6086 36.6967 81.4382 37.0494 82.1139 37.7549C82.7896 38.4604 83.1275 39.3497 83.1275 40.4229C83.1275 41.496 82.7896 42.3853 82.1139 43.0908C81.4382 43.7963 80.6086 44.149 79.6248 44.149C78.9293 44.149 78.3132 43.9503 77.7767 43.5529C77.5382 43.3839 77.3345 43.1852 77.1656 42.9567V47.13H76.1222ZM79.6248 43.1802C80.3105 43.1802 80.8917 42.9219 81.3687 42.4052C81.8456 41.8885 82.0841 41.2277 82.0841 40.4229C82.0841 39.618 81.8456 38.9572 81.3687 38.4405C80.8917 37.9238 80.3105 37.6655 79.6248 37.6655C78.979 37.6655 78.4076 37.9338 77.9108 38.4703C77.414 39.0069 77.1656 39.6578 77.1656 40.4229C77.1656 41.188 77.414 41.8388 77.9108 42.3754C78.4076 42.912 78.979 43.1802 79.6248 43.1802ZM84.9865 44V36.8457H86.0298V40.6464L89.6069 36.8457H90.8738L88.1165 39.7521L91.1719 44H89.9796L87.4458 40.4974L86.0298 41.9879V44H84.9865ZM98.0746 43.0759C97.3691 43.7913 96.5096 44.149 95.4961 44.149C94.4825 44.149 93.6181 43.7913 92.9026 43.0759C92.1971 42.3505 91.8444 41.4662 91.8444 40.4229C91.8444 39.3795 92.1971 38.5002 92.9026 37.7847C93.6181 37.0594 94.4825 36.6967 95.4961 36.6967C96.5096 36.6967 97.3691 37.0594 98.0746 37.7847C98.79 38.5002 99.1477 39.3795 99.1477 40.4229C99.1477 41.4662 98.79 42.3505 98.0746 43.0759ZM93.6479 42.3754C94.1646 42.912 94.7806 43.1802 95.4961 43.1802C96.2115 43.1802 96.8226 42.9169 97.3293 42.3903C97.846 41.8537 98.1044 41.1979 98.1044 40.4229C98.1044 39.6478 97.846 38.997 97.3293 38.4703C96.8226 37.9338 96.2115 37.6655 95.4961 37.6655C94.7806 37.6655 94.1646 37.9338 93.6479 38.4703C93.1411 38.997 92.8877 39.6478 92.8877 40.4229C92.8877 41.188 93.1411 41.8388 93.6479 42.3754ZM99.674 44V42.9567C99.7337 42.9964 99.7933 43.0213 99.8529 43.0312C99.9821 43.0809 100.121 43.1057 100.27 43.1057C100.578 43.1057 100.817 43.0163 100.986 42.8374C101.165 42.6586 101.314 42.2561 101.433 41.6301C101.552 40.9942 101.612 40.095 101.612 38.9324V36.8457H106.828V44H105.785V37.8145H102.655V38.9324C102.655 39.9857 102.6 40.865 102.491 41.5705C102.392 42.2661 102.238 42.7977 102.029 43.1653C101.82 43.533 101.587 43.7913 101.328 43.9404C101.08 44.0795 100.777 44.149 100.419 44.149C100.24 44.149 100.067 44.1242 99.8976 44.0745C99.8479 44.0646 99.7734 44.0397 99.674 44ZM114.915 43.0759C114.21 43.7913 113.35 44.149 112.337 44.149C111.323 44.149 110.459 43.7913 109.743 43.0759C109.038 42.3505 108.685 41.4662 108.685 40.4229C108.685 39.3795 109.038 38.5002 109.743 37.7847C110.459 37.0594 111.323 36.6967 112.337 36.6967C113.35 36.6967 114.21 37.0594 114.915 37.7847C115.631 38.5002 115.988 39.3795 115.988 40.4229C115.988 41.4662 115.631 42.3505 114.915 43.0759ZM110.488 42.3754C111.005 42.912 111.621 43.1802 112.337 43.1802C113.052 43.1802 113.663 42.9169 114.17 42.3903C114.687 41.8537 114.945 41.1979 114.945 40.4229C114.945 39.6478 114.687 38.997 114.17 38.4703C113.663 37.9338 113.052 37.6655 112.337 37.6655C111.621 37.6655 111.005 37.9338 110.488 38.4703C109.982 38.997 109.728 39.6478 109.728 40.4229C109.728 41.188 109.982 41.8388 110.488 42.3754ZM117.853 44V36.8457H122.622V37.8145H118.896V44H117.853ZM123.966 44V36.8457H125.009V42.2114L129.332 36.8457H130.226V44H129.183V38.6343L124.86 44H123.966ZM132.016 44L133.655 41.3917C133.387 41.3122 133.138 41.178 132.91 40.9892C132.413 40.5719 132.165 39.9857 132.165 39.2305C132.165 38.5449 132.403 37.9785 132.88 37.5313C133.367 37.0743 133.998 36.8457 134.773 36.8457H137.828V44H136.785V41.6152H134.698L133.208 44H132.016ZM134.773 40.6464H136.785V37.8145H134.773C134.296 37.8145 133.913 37.9437 133.625 38.2021C133.347 38.4604 133.208 38.8032 133.208 39.2305C133.208 39.6578 133.347 40.0006 133.625 40.2589C133.913 40.5173 134.296 40.6464 134.773 40.6464Z" fill="#262626"/>
<defs>
<linearGradient id="paint0_linear_73_9213" x1="7.82617" y1="11.0684" x2="7.82617" y2="64.7101" gradientUnits="userSpaceOnUse">
<stop stop-color="#A8D2FC"/>
<stop offset="1" stop-color="#FD9886"/>
</linearGradient>
</defs>
</svg>
