<svg width="56" height="38" viewBox="0 0 56 38" fill="none" xmlns="http://www.w3.org/2000/svg">
<path d="M4.7143 0.185936C3.07367 0.623436 1.37836 1.99062 0.678359 3.43437C-0.0325782 4.92187 0.000234329 4.07969 0.000234329 18.7359V32.0469L0.273672 32.9109C0.962734 35.0766 2.84398 36.7828 5.08617 37.2531C6.23461 37.4938 49.7659 37.4938 50.9143 37.2531C53.1565 36.7828 55.0377 35.0766 55.7268 32.9109L56.0002 32.0469V18.7359C56.0002 7.14219 55.9784 5.3375 55.8362 4.77969C55.2565 2.55937 53.4409 0.754684 51.2206 0.174999C50.2909 -0.0656281 5.61117 -0.0546913 4.7143 0.185936ZM14.9299 7.13125C15.1705 7.19687 15.5315 7.40469 15.7174 7.59062C16.4284 8.25781 16.4502 9.12187 15.794 9.85468C15.2362 10.4672 14.7987 10.5328 11.2877 10.4891C8.57524 10.4562 8.34555 10.4453 7.98461 10.2266C6.60648 9.42812 6.9018 7.48125 8.45492 7.12031C9.01274 6.98906 14.4268 7 14.9299 7.13125ZM34.3877 7.27344C36.8596 7.99531 38.7627 9.93125 39.3752 12.3266C40.1737 15.4547 38.6534 18.7359 35.7002 20.2234C34.3768 20.8906 34.1252 20.9234 29.6737 20.9781L25.594 21.0328V22.225V23.4172H28.4487C31.1612 23.4172 31.3252 23.4281 31.719 23.6469C32.8346 24.2703 32.8674 25.725 31.7846 26.5234C31.5002 26.7422 31.3143 26.7531 28.5471 26.7859L25.6159 26.8187L25.5721 28.0109C25.5393 29.2797 25.4409 29.5422 24.8174 30.0125C24.0737 30.5594 22.9034 30.2203 22.4549 29.3234C22.2471 28.9297 22.2034 28.6562 22.2034 27.825V26.8187L19.8737 26.7859L17.533 26.7531L17.1393 26.4469C16.9096 26.2828 16.658 25.9984 16.5705 25.8234C16.1877 25.0906 16.5268 24.0734 17.2815 23.6469C17.6643 23.4391 17.8502 23.4172 19.9502 23.4172H22.2034V15.9797C22.2034 9.89844 22.2362 8.46562 22.3565 8.18125C22.5534 7.71094 23.0455 7.27344 23.5159 7.13125C23.7674 7.06562 25.6596 7.03281 28.8205 7.05469C33.0862 7.0875 33.8299 7.10937 34.3877 7.27344ZM48.0159 27.125C48.2237 27.2344 48.519 27.4859 48.6502 27.6937C48.869 28 48.9018 28.175 48.869 28.7C48.8252 29.2031 48.7596 29.3891 48.4971 29.6625C47.9174 30.2859 47.7752 30.3078 44.319 30.3078C41.2674 30.3078 41.1581 30.2969 40.6877 30.0562C40.3268 29.8812 40.1299 29.6844 39.944 29.3234C39.5174 28.5031 39.7471 27.7266 40.5784 27.1578C40.9284 26.9172 40.994 26.9172 44.2862 26.9172C47.3377 26.9172 47.6659 26.9391 48.0159 27.125Z" fill="#A8D2FC"/>
<path d="M25.5938 14.2969V17.7969H29.5094C32.9547 17.7969 33.4797 17.775 33.95 17.6109C34.6391 17.3594 35.4812 16.6047 35.8531 15.8938C36.1156 15.4016 36.1484 15.2156 36.1484 14.2969C36.1484 13.3781 36.1156 13.1922 35.8531 12.7C35.6891 12.3938 35.3062 11.9125 35 11.6391C34.0813 10.8078 33.9828 10.7969 29.5094 10.7969H25.5938V14.2969Z" fill="#A8D2FC"/>
</svg>
