<svg width="56" height="40" viewBox="0 0 56 40" fill="none" xmlns="http://www.w3.org/2000/svg">
<path d="M3.28047 0.465625C2.00078 0.739062 0.907031 1.61406 0.349219 2.80625C0.0539063 3.41875 0.0539063 3.4625 0.0210938 6.13125L-0.0117188 8.84375H27.9992H56.0102L55.9773 6.13125C55.9445 3.4625 55.9445 3.41875 55.6492 2.80625C55.0805 1.58125 53.9102 0.673438 52.5648 0.432813C51.5914 0.257812 4.10078 0.279688 3.28047 0.465625Z" fill="#A8D2FC"/>
<path d="M0.021875 25.4352L0.0546875 36.5695L0.35 37.193C0.91875 38.418 2.08906 39.3258 3.43438 39.5664C4.35313 39.7305 51.6469 39.7305 52.5656 39.5664C53.9109 39.3258 55.0812 38.418 55.65 37.193L55.9453 36.5695L55.9781 25.4352L56 14.3117H28H0L0.021875 25.4352ZM19.5781 22.7883V25.5773H12.6328H5.6875V22.7883V19.9992H12.6328H19.5781V22.7883Z" fill="#A8D2FC"/>
</svg>
