<svg width="52" height="56" viewBox="0 0 52 56" fill="none" xmlns="http://www.w3.org/2000/svg">
<path d="M29.5403 0.0892029C29.11 0.228077 26.6923 2.53842 25.0848 4.3564C24.2114 5.35376 24.1734 5.41688 24.1734 6.0355C24.1734 6.38899 24.2367 6.79298 24.3126 6.94448C24.5152 7.33585 28.8568 11.6914 29.2619 11.906C29.7555 12.1712 30.7428 12.1333 31.2365 11.8303C32.0719 11.3253 32.4137 10.1259 31.958 9.25483C31.8441 9.05283 31.7808 8.86346 31.8061 8.83821C31.9327 8.72458 34.287 9.65882 36.0085 10.5173C38.5147 11.7545 39.9577 12.7898 41.9703 14.7971C45.0335 17.8397 46.793 21.1095 47.7296 25.4651C48.1347 27.2831 48.16 31.9038 47.7929 33.8606C45.5525 45.8794 35.211 53.4796 23.2494 51.9141C12.1105 50.4622 4.49045 42.0541 3.95882 30.6413C3.69301 25.0106 5.95876 19.1274 10.0472 14.8855C11.6548 13.2064 13.3889 11.906 15.8319 10.5047C16.68 10.0249 16.9837 9.60832 17.047 8.83821C17.1483 7.65147 16.3382 6.78036 15.123 6.78036C14.5408 6.78036 14.3129 6.86873 13.1358 7.57573C11.3763 8.63621 10.3257 9.3937 8.7688 10.7319C0.882969 17.5241 -1.96505 28.1037 1.37662 38.2162C2.7057 42.2182 4.68032 45.5133 7.51568 48.4296C9.7308 50.6895 11.5915 52.0656 14.3129 53.4291C18.1356 55.3354 22.0975 56.1434 26.8948 55.9793C30.2998 55.853 32.6795 55.4491 35.3629 54.5022C45.6538 50.8789 52.3877 40.4886 51.9827 28.8738C51.8434 24.8717 51.008 21.5514 49.2992 18.1427C46.0082 11.5904 40.1349 7.05811 32.1858 4.91189L30.5023 4.45739L31.1985 3.73778C31.5782 3.33378 31.9453 2.86666 32.0213 2.67729C32.6035 1.14969 31.1226 -0.390537 29.5403 0.0892029Z" fill="#A8D2FC"/>
<path d="M11.326 19.2294C11.1235 19.3431 10.7311 19.646 10.4653 19.8859C9.76908 20.555 9.61719 21.2115 9.61719 23.4714V25.3398H25.642H41.6542L41.6162 23.0926C41.5782 20.8707 41.5782 20.8328 41.2238 20.3152C41.034 20.0248 40.6416 19.6334 40.3504 19.4441L39.8188 19.0906L25.7686 19.0653C13.1487 19.0401 11.6678 19.0527 11.326 19.2294Z" fill="#A8D2FC"/>
<path d="M9.64735 34.2644C9.68532 39.3901 9.69798 39.5542 9.96379 40.0466C10.103 40.3243 10.3942 40.7031 10.5967 40.8925C11.4068 41.6626 10.584 41.6247 25.7228 41.6247C39.4819 41.6247 39.5452 41.6247 40.0895 41.3596C40.735 41.044 41.3046 40.4001 41.5071 39.7436C41.5957 39.4154 41.6464 37.61 41.6464 34.1256V28.9999H25.6342H9.60938L9.64735 34.2644ZM19.723 34.782C20.8242 35.5648 20.7483 37.1303 19.5964 37.8372C19.2293 38.0645 18.9509 38.0897 17.1155 38.0897C14.8497 38.0897 14.5966 38.0266 14.0016 37.3323C13.4194 36.6253 13.6093 35.388 14.394 34.8325C14.913 34.4664 15.0776 34.4412 17.28 34.4664C19.1787 34.4917 19.3306 34.5043 19.723 34.782Z" fill="#A8D2FC"/>
</svg>
