<svg width="74" height="74" viewBox="0 0 74 74" fill="none" xmlns="http://www.w3.org/2000/svg">
<path d="M9.36654 14.1496C7.27084 14.8289 5.47865 16.6645 4.85717 18.7746C4.65482 19.4539 4.62592 20.798 4.62592 28.9063C4.62592 37.0145 4.65482 38.3586 4.85717 39.0379C5.47865 41.177 7.28529 42.998 9.4099 43.6629C10.147 43.8941 10.754 43.9375 13.1677 43.9375C14.7431 43.9375 16.0439 43.9664 16.0439 44.0098C16.0439 44.1977 14.7142 47.4785 14.3095 48.2734C12.7197 51.4531 10.5083 53.5055 6.86615 55.2254C5.68099 55.7746 5.29076 56.0348 5.0017 56.4684C4.29349 57.509 4.59701 59.0844 5.63763 59.7926C6.07123 60.0961 6.28802 60.125 7.97904 60.125C11.231 60.125 14.2806 59.6625 17.0267 58.7375C23.0826 56.7285 27.4763 52.5227 30.9306 45.4551C32.9829 41.2492 33.9947 38.0406 34.4861 34.225C34.8185 31.5801 34.7029 26.8684 34.2548 24.7871C33.9079 23.1395 33.1708 21.1016 32.347 19.4684C31.6677 18.0953 29.8466 15.0891 29.4275 14.6266C28.7337 13.8605 29.0228 13.875 19.2669 13.8895C10.8697 13.8895 10.1326 13.9039 9.36654 14.1496Z" fill="#BEDBD7" fill-opacity="0.4"/>
<path d="M44.054 14.1496C41.9583 14.8289 40.1661 16.6645 39.5447 18.7746C39.3423 19.4539 39.3134 20.798 39.3134 28.9063C39.3134 37.0145 39.3423 38.3586 39.5447 39.0379C40.1661 41.177 41.9728 42.998 44.0974 43.6629C44.8345 43.8941 45.4415 43.9375 47.8552 43.9375C49.4306 43.9375 50.7314 43.9664 50.7314 44.0098C50.7314 44.1977 49.4017 47.4785 48.997 48.2734C47.4072 51.4531 45.1958 53.5055 41.5536 55.2254C40.3685 55.7746 39.9783 56.0348 39.6892 56.4684C38.981 57.509 39.2845 59.0844 40.3251 59.7926C40.7587 60.0961 40.9755 60.125 42.6665 60.125C45.9185 60.125 48.9681 59.6625 51.7142 58.7375C57.7701 56.7285 62.1638 52.5227 65.6181 45.4551C67.6704 41.2492 68.6822 38.0406 69.1736 34.225C69.506 31.5801 69.3904 26.8684 68.9423 24.7871C68.5954 23.1395 67.8583 21.1016 67.0345 19.4684C66.3552 18.0953 64.5341 15.0891 64.115 14.6266C63.4212 13.8605 63.7103 13.875 53.9544 13.8895C45.5572 13.8895 44.8201 13.9039 44.054 14.1496Z" fill="#BEDBD7" fill-opacity="0.4"/>
</svg>
