<svg width="14" height="14" viewBox="0 0 14 14" fill="none" xmlns="http://www.w3.org/2000/svg">
<path d="M6.36371 0.350195C5.61371 0.41582 4.78246 0.650195 4.07309 0.99707C2.70121 1.67207 1.67309 2.7002 0.998086 4.07207C-0.608165 7.34707 0.73871 11.3314 4.00121 12.9689C4.64809 13.2939 5.29809 13.5002 6.03246 13.6127C6.52309 13.6877 7.47309 13.6877 7.96996 13.6127C10.1887 13.2721 12.02 11.9283 13.0043 9.92832C14.1512 7.5877 13.82 4.77832 12.1543 2.74395C10.7668 1.05019 8.59809 0.15332 6.36371 0.350195ZM7.27934 3.27832C7.49184 3.43145 7.48559 3.37207 7.49496 5.1877L7.50434 6.82832L8.45121 7.78145C8.97309 8.30645 9.41684 8.76582 9.43559 8.80332C9.49184 8.9127 9.47621 9.12832 9.40746 9.24395C9.28871 9.4377 8.99496 9.53145 8.80434 9.43457C8.70434 9.38457 6.63246 7.31582 6.56996 7.20332C6.52309 7.11895 6.51684 6.94082 6.50746 5.5002C6.50121 4.61582 6.50746 3.80332 6.51684 3.69707C6.54184 3.47207 6.62309 3.33144 6.78246 3.24395C6.92309 3.16582 7.14184 3.18145 7.27934 3.27832Z" fill="#A8D2FC"/>
</svg>
