<svg width="32" height="32" viewBox="0 0 32 32" fill="none" xmlns="http://www.w3.org/2000/svg">
<path fill-rule="evenodd" clip-rule="evenodd" d="M3.46482 7.99835C8.09703 7.94075 12.5509 6.20389 15.9992 3.11035C19.4473 6.20447 23.9012 7.94191 28.5336 7.99995C28.7096 9.03995 28.7992 10.112 28.7992 11.2016C28.7992 19.5616 23.4552 26.6736 15.9992 29.3088C8.54322 26.672 3.19922 19.56 3.19922 11.2C3.19922 10.1088 3.29042 9.03995 3.46482 7.99835ZM21.9304 13.9312C22.2219 13.6294 22.3831 13.2252 22.3795 12.8057C22.3759 12.3862 22.2076 11.9849 21.9109 11.6882C21.6143 11.3916 21.213 11.2233 20.7935 11.2197C20.3739 11.216 19.9698 11.3773 19.668 11.6688L14.3992 16.9376L12.3304 14.8688C12.0287 14.5773 11.6245 14.416 11.205 14.4197C10.7855 14.4233 10.3842 14.5916 10.0875 14.8882C9.79086 15.1849 9.62259 15.5862 9.61894 16.0057C9.61529 16.4252 9.77657 16.8294 10.068 17.1312L13.268 20.3312C13.5681 20.6311 13.975 20.7996 14.3992 20.7996C14.8235 20.7996 15.2304 20.6311 15.5304 20.3312L21.9304 13.9312Z" fill="url(#paint0_linear_1375_10020)"/>
<defs>
<linearGradient id="paint0_linear_1375_10020" x1="26.6724" y1="1.74585" x2="4.7104" y2="6.84724" gradientUnits="userSpaceOnUse">
<stop stop-color="#6AA5AE"/>
<stop offset="1" stop-color="#3D7C85"/>
</linearGradient>
</defs>
</svg>
