<svg width="24" height="24" viewBox="0 0 24 24" fill="none" xmlns="http://www.w3.org/2000/svg">
<path d="M8.96777 14C9.40903 15.1652 10.5996 16 11.9991 16C13.3986 16 14.5893 15.1652 15.0305 14M8.78571 10H8.79536M15.2143 10H15.2239M4.5 10C4.5 6.13401 7.85787 3 12 3C16.1421 3 19.5 6.13401 19.5 10V21L18.6244 20.4552C17.7913 19.9368 17.3748 19.6777 16.9339 19.6045C16.5451 19.54 16.1448 19.577 15.7771 19.7114C15.3602 19.8638 15.0062 20.1942 14.2982 20.855C14.2124 20.9351 14.0733 20.935 13.9874 20.855C13.5042 20.4052 13.2373 20.1686 12.9514 20.0364C12.352 19.7591 11.648 19.7591 11.0486 20.0364C10.7627 20.1686 10.4958 20.4052 10.0126 20.855C9.92668 20.935 9.78759 20.9351 9.70179 20.855C8.99382 20.1942 8.63983 19.8638 8.22288 19.7114C7.8552 19.577 7.45487 19.54 7.06608 19.6045C6.6252 19.6777 6.20866 19.9368 5.37559 20.4552L4.5 21V10Z" stroke="white" stroke-width="2" stroke-linecap="round" stroke-linejoin="round"/>
</svg>
