<svg width="24" height="24" viewBox="0 0 24 24" fill="none" xmlns="http://www.w3.org/2000/svg">
<path d="M9.74643 15.1076L14.2413 10.8806M12.0662 6.06274L11.9338 5.93726C11.5687 5.59135 11.3861 5.4184 11.1731 5.29472C10.9841 5.18506 10.7782 5.10425 10.5629 5.05526C10.3199 5 10.0617 5 9.54533 5H5.87778C4.69545 5 4.10428 5 3.65269 5.21799C3.25545 5.40973 2.93249 5.71569 2.7301 6.09202C2.5 6.51984 2.5 7.07989 2.5 8.2V15.8C2.5 16.9201 2.5 17.4802 2.7301 17.908C2.93249 18.2843 3.25545 18.5903 3.65269 18.782C4.10428 19 4.69544 19 5.87778 19H18.1222C19.3045 19 19.8958 19 20.3473 18.782C20.7445 18.5903 21.0675 18.2843 21.2699 17.908C21.5 17.4802 21.5 16.9201 21.5 15.8V10.2C21.5 9.0799 21.5 8.51984 21.2699 8.09202C21.0675 7.71569 20.7445 7.40973 20.3473 7.21799C19.8958 7 19.3045 7 18.1222 7H14.4547C13.9383 7 13.6801 7 13.4371 6.94474C13.2218 6.89575 13.0159 6.81494 12.8269 6.70528C12.6139 6.5816 12.4313 6.40865 12.0662 6.06274ZM15.1667 13C15.1667 14.6569 13.7489 16 12 16C10.251 16 8.83333 14.6569 8.83333 13C8.83333 11.3431 10.251 10 12 10C13.7489 10 15.1667 11.3431 15.1667 13Z" stroke="white" stroke-width="2" stroke-linecap="round" stroke-linejoin="round"/>
</svg>
