<svg width="24" height="22" viewBox="0 0 24 22" fill="none" xmlns="http://www.w3.org/2000/svg">
<path d="M7.6 16.3571H16.4M7.6 16.3571C7.6 17.5406 6.61503 18.5 5.4 18.5C4.18497 18.5 3.2 17.5406 3.2 16.3571M7.6 16.3571C7.6 15.1736 6.61503 14.2143 5.4 14.2143C4.18497 14.2143 3.2 15.1736 3.2 16.3571M16.4 16.3571C16.4 17.5406 17.3849 18.5 18.6 18.5C19.8151 18.5 20.8 17.5406 20.8 16.3571M16.4 16.3571C16.4 15.1736 17.3849 14.2143 18.6 14.2143C19.8151 14.2143 20.8 15.1736 20.8 16.3571M3.2 16.3571H2.76C2.14394 16.3571 1.83591 16.3571 1.60061 16.2404C1.39364 16.1376 1.22536 15.9738 1.11989 15.7721C1 15.543 1 15.243 1 14.6429V13.3571C1 12.157 1 11.5569 1.23979 11.0986C1.4507 10.6954 1.78726 10.3675 2.20122 10.1621C2.67182 9.92857 3.28789 9.92857 4.52 9.92857H17.72C18.5375 9.92857 18.9463 9.92857 19.2883 9.98129C21.171 10.2718 22.6477 11.71 22.9459 13.5439C23 13.877 23 14.2751 23 15.0714C23 15.2705 23 15.37 22.9865 15.4533C22.9119 15.9118 22.5427 16.2713 22.072 16.344C21.9866 16.3571 21.8844 16.3571 21.68 16.3571H20.8M9.8 3.5V9.92857M3.2 9.92857L3.56467 7.79737C3.82591 6.27064 3.95654 5.50727 4.34763 4.93443C4.69238 4.42946 5.17676 4.02979 5.74481 3.78158C6.38923 3.5 7.18376 3.5 8.77283 3.5H12.4742C13.5073 3.5 14.0239 3.5 14.4928 3.6387C14.908 3.76149 15.2941 3.96279 15.6292 4.2311C16.0079 4.53418 16.2944 4.95283 16.8675 5.79011L19.7 9.92857" stroke="white" stroke-width="1.5" stroke-linecap="round" stroke-linejoin="round"/>
</svg>
