<svg width="22" height="22" viewBox="0 0 22 22" fill="none" xmlns="http://www.w3.org/2000/svg">
<path d="M9.063 7.5C9.0219 7.34019 9 7.17265 9 7C9 5.89543 9.8954 5 11 5C11.1413 5 11.2792 5.01466 11.4122 5.04253M4 3L2 2M18 3L20 2M3 9H2M20 9H19M4.6 20H17.4C17.9601 20 18.2401 20 18.454 19.891C18.6422 19.7951 18.7951 19.6422 18.891 19.454C19 19.2401 19 18.9601 19 18.4V17.6C19 17.0399 19 16.7599 18.891 16.546C18.7951 16.3578 18.6422 16.2049 18.454 16.109C18.2401 16 17.9601 16 17.4 16H4.6C4.03995 16 3.75992 16 3.54601 16.109C3.35785 16.2049 3.20487 16.3578 3.10899 16.546C3 16.7599 3 17.0399 3 17.6V18.4C3 18.9601 3 19.2401 3.10899 19.454C3.20487 19.6422 3.35785 19.7951 3.54601 19.891C3.75992 20 4.03995 20 4.6 20ZM16 13V7C16 4.23858 13.7614 2 11 2C8.23858 2 6 4.23858 6 7V13H16Z" stroke="white" stroke-width="1.5" stroke-linecap="round" stroke-linejoin="round"/>
</svg>
