<svg width="24" height="24" viewBox="0 0 24 24" fill="none" xmlns="http://www.w3.org/2000/svg">
<path d="M8.8125 12.0225L10.9375 14.0428L15.1875 10.0022M20.5 12.0225C20.5 16.5288 14.6987 19.7942 12.6815 20.7935C12.4634 20.9016 12.3542 20.9557 12.2029 20.9836C12.085 21.0055 11.915 21.0055 11.7971 20.9836C11.6458 20.9557 11.5366 20.9016 11.3185 20.7935C9.30121 19.7942 3.5 16.5288 3.5 12.0225V8.20178C3.5 7.39417 3.5 6.99037 3.63893 6.64326C3.76166 6.33661 3.9611 6.06301 4.22001 5.84608C4.51309 5.60053 4.91079 5.45874 5.70617 5.17517L11.4031 3.14412C11.624 3.06537 11.7344 3.026 11.8481 3.01038C11.9488 2.99654 12.0512 2.99654 12.1519 3.01038C12.2656 3.026 12.376 3.06537 12.5969 3.14412L18.2938 5.17517C19.0892 5.45874 19.4869 5.60053 19.7799 5.84608C20.0389 6.06301 20.2383 6.33661 20.361 6.64326C20.5 6.99037 20.5 7.39417 20.5 8.20178V12.0225Z" stroke="white" stroke-width="2" stroke-linecap="round" stroke-linejoin="round"/>
</svg>
