<svg width="24" height="24" viewBox="0 0 24 24" fill="none" xmlns="http://www.w3.org/2000/svg">
<path d="M10.8519 1.86535L10.8533 1.86515C11.1325 1.82526 11.7832 1.83155 12.431 1.86297C13.081 1.89449 13.7573 1.95277 14.0912 2.02382L14.0915 2.02388C18.0856 2.88222 21.1111 5.91532 21.9829 9.94234L21.9829 9.94238C22.0953 10.4624 22.15 11.2352 22.15 12C22.15 12.7648 22.0953 13.5376 21.9829 14.0576L21.9829 14.0578C21.3187 17.1086 19.422 19.6155 16.6941 21.0348L16.6936 21.0351C15.836 21.4777 15.0051 21.7754 14.058 21.9828V21.9828L14.0576 21.9829C13.5376 22.0953 12.7648 22.15 12 22.15C11.2352 22.15 10.4624 22.0953 9.94238 21.9829L9.94217 21.9829C6.89142 21.3187 4.37766 19.4152 2.96509 16.6939L2.96493 16.6936C2.52228 15.836 2.22457 15.0051 2.01718 14.058H2.01718L2.0171 14.0576C1.90466 13.5376 1.85 12.7648 1.85 12C1.85 11.2352 1.90466 10.4624 2.0171 9.94238L2.01711 9.94234C2.59808 7.25882 4.14816 4.96658 6.35845 3.51846L6.35848 3.51844C7.72242 2.62531 9.03934 2.14103 10.8519 1.86535ZM6.02555 18.3169L6.02557 18.3169C7.2397 19.4707 8.62656 20.2013 10.3257 20.564C10.7163 20.646 11.3535 20.6887 12 20.6887C12.6464 20.6887 13.2835 20.6461 13.6741 20.5641C15.4807 20.1745 16.8463 19.4313 18.1422 18.1423C19.4313 16.8464 20.1744 15.4809 20.564 13.6744C20.6495 13.2597 20.6836 12.8282 20.6836 12C20.6836 10.8061 20.5967 10.2221 20.2751 9.25051C19.31 6.34196 16.8156 4.12739 13.7414 3.44939C13.4081 3.37758 12.8047 3.33 12.1934 3.31555C11.5817 3.30108 10.9839 3.32031 10.6615 3.3756C8.63889 3.7386 7.0517 4.58317 5.69 6.01865L5.68962 6.01904C4.53636 7.22595 3.79872 8.63987 3.43593 10.3259C3.35395 10.7165 3.31132 11.3536 3.31132 12C3.31132 12.6464 3.35395 13.2836 3.43595 13.6741C3.83218 15.5208 4.68358 17.042 6.02555 18.3169Z" fill="white" stroke="white" stroke-width="0.3"/>
<path d="M10.0202 7.206L10.0206 7.20558L10.1638 7.0214L10.1942 6.98229L10.2438 6.9828L12.2356 7.00327L14.2206 7.02373L14.2425 7.02396L14.2624 7.03335L14.6506 7.21726C14.6507 7.21731 14.6508 7.21735 14.6509 7.21739C15.4859 7.60671 16.0994 8.41186 16.2688 9.34306C16.4956 10.5762 15.8092 11.875 14.6509 12.4189L14.6505 12.4191C14.4547 12.5099 14.3377 12.5609 14.075 12.5889C13.8219 12.616 13.427 12.6228 12.6725 12.633L12.6724 12.633L11.2159 12.6522V13.0992V13.538H12.4392H13.7693H13.8186L13.8486 13.5771L13.9845 13.7537C14.0329 13.8145 14.0732 13.8902 14.1014 13.9637C14.1294 14.0365 14.149 14.1158 14.149 14.1838C14.149 14.2517 14.1294 14.331 14.1014 14.4038C14.0732 14.4773 14.0329 14.553 13.9845 14.6138L13.8486 14.7904L13.8186 14.8295H13.7693H12.4392H11.2159V15.664C11.2159 16.0941 11.2127 16.3378 11.191 16.4922C11.1799 16.5715 11.1632 16.6332 11.1366 16.6874C11.1099 16.7418 11.076 16.7829 11.0398 16.8226L11.0398 16.8227L11.0386 16.8239C10.9054 16.9655 10.7062 17.0264 10.5198 17.0216C10.3339 17.0168 10.1403 16.9459 10.0214 16.7974L10.0211 16.797C9.98566 16.7522 9.95467 16.7068 9.93036 16.6494C9.90624 16.5925 9.89066 16.5285 9.88011 16.4477C9.85947 16.2897 9.85625 16.0503 9.85625 15.6435V14.8295H9.00809H8.98685C8.53203 14.8295 8.2873 14.8295 8.14204 14.806C8.06427 14.7934 8.00452 14.7729 7.95301 14.7358C7.90547 14.7016 7.8713 14.6571 7.83952 14.6158L7.83797 14.6138C7.78953 14.553 7.74929 14.4773 7.72103 14.4038C7.69304 14.331 7.67344 14.2517 7.67344 14.1838C7.67344 14.1158 7.69304 14.0365 7.72103 13.9637C7.74941 13.8899 7.78987 13.8138 7.8386 13.7529L7.83952 13.7517C7.8713 13.7104 7.90547 13.6659 7.95301 13.6317C8.00452 13.5946 8.06427 13.5741 8.14204 13.5615C8.2873 13.538 8.53203 13.538 8.98685 13.538H9.00809H9.85625V13.0923V12.6466H9.00809H8.98686C8.53204 12.6466 8.2873 12.6467 8.14204 12.6232C8.06427 12.6106 8.00452 12.5901 7.95301 12.553C7.90547 12.5187 7.8713 12.4743 7.83952 12.433L7.83797 12.431C7.78953 12.3702 7.74929 12.2945 7.72103 12.221C7.69304 12.1482 7.67344 12.0689 7.67344 12.0009C7.67344 11.933 7.69304 11.8536 7.72103 11.7809C7.74941 11.7071 7.78987 11.631 7.8386 11.5701L7.83953 11.5689C7.87131 11.5276 7.90547 11.4831 7.95301 11.4489C8.00452 11.4118 8.06427 11.3912 8.14204 11.3787C8.2873 11.3552 8.53204 11.3552 8.98686 11.3552H9.00809H9.85625V9.44978C9.85625 8.48317 9.85789 7.97738 9.87693 7.69177C9.88645 7.54897 9.90069 7.45337 9.92437 7.3798C9.94937 7.30209 9.98342 7.25386 10.0202 7.206ZM14.1056 8.48139L14.1056 8.4814L14.1044 8.48077C13.9512 8.39928 13.8643 8.36025 13.6602 8.33573C13.4465 8.31005 13.1118 8.30153 12.4648 8.28783C12.4646 8.28783 12.4645 8.28783 12.4644 8.28782L11.2159 8.26891V9.81813V11.3668L12.4645 11.3416L12.4648 11.3416C13.0875 11.3313 13.4248 11.3228 13.6442 11.2987C13.8559 11.2754 13.952 11.2385 14.093 11.168L14.093 11.168L14.0942 11.1674C14.4764 10.9827 14.7585 10.6447 14.8875 10.2064C15.0781 9.53869 14.7544 8.81547 14.1056 8.48139Z" fill="white" stroke="white" stroke-width="0.2"/>
</svg>
