<svg width="24" height="24" viewBox="0 0 24 24" fill="none" xmlns="http://www.w3.org/2000/svg">
<path d="M10.5 20.8122H5.6C5.03995 20.8122 4.75992 20.8122 4.54601 20.7043C4.35785 20.6094 4.20487 20.4581 4.10899 20.2719C4 20.0602 4 19.7831 4 19.2289V17.5309C4 16.9019 4 16.5873 4.04798 16.3251C4.27087 15.1067 5.23442 14.1533 6.46558 13.9327C6.5425 13.919 6.6237 13.9092 6.71575 13.9022C6.94079 13.8852 7.05331 13.8767 7.20361 13.8878C7.35983 13.8994 7.4472 13.9146 7.59797 13.9567C7.74302 13.9971 8.00429 14.1143 8.52682 14.3485C8.83795 14.488 9.16326 14.6019 9.5 14.6877M15 6.95826C15 9.14434 13.2091 10.9165 11 10.9165C8.79086 10.9165 7 9.14434 7 6.95826C7 4.77217 8.79086 3 11 3C13.2091 3 15 4.77217 15 6.95826ZM16.4976 16.074C15.7978 15.3031 14.6309 15.0956 13.7541 15.8017C12.8774 16.5077 12.7539 17.6881 13.4425 18.5231C13.8312 18.9945 14.7548 19.8209 15.4854 20.4513C15.8319 20.7502 16.0051 20.8997 16.2147 20.9609C16.3934 21.013 16.6018 21.013 16.7805 20.9609C16.9901 20.8997 17.1633 20.7502 17.5098 20.4513C18.2404 19.8209 19.164 18.9945 19.5527 18.5231C20.2413 17.6881 20.1329 16.5002 19.2411 15.8017C18.3492 15.1031 17.1974 15.3031 16.4976 16.074Z" stroke="white" stroke-width="2" stroke-linecap="round" stroke-linejoin="round"/>
</svg>
