<svg width="64" height="54" viewBox="0 0 64 54" fill="none" xmlns="http://www.w3.org/2000/svg">
<path d="M42.6667 10.8C42.6667 13.6643 41.5429 16.4114 39.5425 18.4368C37.5421 20.4621 34.829 21.6 32 21.6C29.171 21.6 26.4579 20.4621 24.4575 18.4368C22.4571 16.4114 21.3333 13.6643 21.3333 10.8C21.3333 7.93566 22.4571 5.18864 24.4575 3.16325C26.4579 1.13785 29.171 0 32 0C34.829 0 37.5421 1.13785 39.5425 3.16325C41.5429 5.18864 42.6667 7.93566 42.6667 10.8ZM60.4444 18C60.4444 19.9096 59.6952 21.7409 58.3616 23.0912C57.0281 24.4414 55.2193 25.2 53.3333 25.2C51.4473 25.2 49.6386 24.4414 48.305 23.0912C46.9714 21.7409 46.2222 19.9096 46.2222 18C46.2222 16.0904 46.9714 14.2591 48.305 12.9088C49.6386 11.5586 51.4473 10.8 53.3333 10.8C55.2193 10.8 57.0281 11.5586 58.3616 12.9088C59.6952 14.2591 60.4444 16.0904 60.4444 18ZM46.2222 43.2C46.2222 39.3809 44.7238 35.7182 42.0566 33.0177C39.3894 30.3171 35.772 28.8 32 28.8C28.228 28.8 24.6106 30.3171 21.9434 33.0177C19.2762 35.7182 17.7778 39.3809 17.7778 43.2V54H46.2222V43.2ZM17.7778 18C17.7778 19.9096 17.0286 21.7409 15.695 23.0912C14.3614 24.4414 12.5527 25.2 10.6667 25.2C8.78068 25.2 6.97194 24.4414 5.63835 23.0912C4.30476 21.7409 3.55556 19.9096 3.55556 18C3.55556 16.0904 4.30476 14.2591 5.63835 12.9088C6.97194 11.5586 8.78068 10.8 10.6667 10.8C12.5527 10.8 14.3614 11.5586 15.695 12.9088C17.0286 14.2591 17.7778 16.0904 17.7778 18ZM53.3333 54V43.2C53.3385 39.5398 52.4206 35.9389 50.6667 32.7384C52.243 32.33 53.8907 32.2914 55.484 32.6258C57.0772 32.9601 58.5741 33.6585 59.8602 34.6677C61.1464 35.6768 62.1879 36.9701 62.9053 38.4488C63.6228 39.9274 63.9972 41.5525 64 43.2V54H53.3333ZM13.3333 32.7384C11.5795 35.939 10.6617 39.5398 10.6667 43.2V54H9.44782e-07V43.2C-0.000684331 41.5513 0.371425 39.9244 1.08781 38.4439C1.8042 36.9634 2.84584 35.6686 4.13292 34.6587C5.42 33.6488 6.91833 32.9507 8.5131 32.6179C10.1079 32.285 11.7567 32.3262 13.3333 32.7384Z" fill="#dcedfe"/>
</svg>
