<svg width="52" height="54" viewBox="0 0 52 54" fill="none" xmlns="http://www.w3.org/2000/svg">
<path d="M26 34.8387C25.4249 34.8387 24.8542 34.8126 24.2913 34.7636C21.3865 34.507 18.5775 33.6067 16.0734 32.1295C13.5692 30.6524 11.4342 28.6363 9.82712 26.2314L0 43.5484H12.6695L19.0593 54L28.1516 34.72C27.4372 34.7985 26.7189 34.8382 26 34.8387ZM42.1949 26.2096C39.8676 29.6927 36.4583 32.3344 32.4802 33.7369L27.95 43.4939L32.9407 54L39.3305 43.5484H52L42.1949 26.2096Z" fill="#dcedfe"/>
<path d="M26.0022 20.9032C28.9228 20.9032 31.2903 18.5636 31.2903 15.6774C31.2903 12.7913 28.9228 10.4516 26.0022 10.4516C23.0816 10.4516 20.7141 12.7913 20.7141 15.6774C20.7141 18.5636 23.0816 20.9032 26.0022 20.9032Z" fill="#dcedfe"/>
<path d="M26 0C17.2525 0 10.1356 7.03306 10.1356 15.6774C10.1356 24.3218 17.2525 31.3548 26 31.3548C34.7475 31.3548 41.8644 24.3218 41.8644 15.6774C41.8644 7.03306 34.7475 0 26 0ZM26 24.3871C24.2568 24.3871 22.5528 23.8763 21.1034 22.9192C19.6541 21.9622 18.5244 20.602 17.8573 19.0105C17.1903 17.419 17.0157 15.6678 17.3558 13.9782C17.6959 12.2887 18.5353 10.7368 19.7679 9.51875C21.0005 8.30068 22.5709 7.47116 24.2806 7.1351C25.9902 6.79903 27.7623 6.97151 29.3728 7.63073C30.9833 8.28994 32.3598 9.40628 33.3282 10.8386C34.2967 12.2709 34.8136 13.9548 34.8136 15.6774C34.8109 17.9866 33.8815 20.2004 32.2292 21.8332C30.5769 23.466 28.3367 24.3845 26 24.3871Z" fill="#dcedfe"/>
</svg>
