<svg width="47" height="54" viewBox="0 0 47 54" fill="none" xmlns="http://www.w3.org/2000/svg">
<path d="M23.5 27C27.0615 27 30.4771 25.5777 32.9954 23.0459C35.5138 20.5142 36.9286 17.0804 36.9286 13.5C36.9286 9.91958 35.5138 6.4858 32.9954 3.95406C30.4771 1.42232 27.0615 0 23.5 0C19.9385 0 16.5229 1.42232 14.0046 3.95406C11.4862 6.4858 10.0714 9.91958 10.0714 13.5C10.0714 17.0804 11.4862 20.5142 14.0046 23.0459C16.5229 25.5777 19.9385 27 23.5 27ZM13.4286 32.8219C5.66518 35.1105 0 42.3246 0 50.8676C0 52.5973 1.39531 54 3.11585 54H43.8842C45.6047 54 47 52.5973 47 50.8676C47 42.3246 41.3348 35.1105 33.5714 32.8219V38.1797C36.467 38.9285 38.6071 41.5758 38.6071 44.7188V48.9375C38.6071 49.8656 37.8518 50.625 36.9286 50.625H35.25C34.3268 50.625 33.5714 49.8656 33.5714 48.9375C33.5714 48.0094 34.3268 47.25 35.25 47.25V44.7188C35.25 42.852 33.7498 41.3438 31.8929 41.3438C30.0359 41.3438 28.5357 42.852 28.5357 44.7188V47.25C29.4589 47.25 30.2143 48.0094 30.2143 48.9375C30.2143 49.8656 29.4589 50.625 28.5357 50.625H26.8571C25.9339 50.625 25.1786 49.8656 25.1786 48.9375V44.7188C25.1786 41.5758 27.3188 38.9285 30.2143 38.1797V32.1574C29.5848 32.0941 28.9449 32.0625 28.2944 32.0625H18.7056C18.0551 32.0625 17.4152 32.0941 16.7857 32.1574V39.0551C19.2092 39.7828 20.9821 42.0398 20.9821 44.7188C20.9821 47.9777 18.3489 50.625 15.1071 50.625C11.8654 50.625 9.23214 47.9777 9.23214 44.7188C9.23214 42.0398 11.0051 39.7828 13.4286 39.0551V32.8219ZM15.1071 47.25C15.7749 47.25 16.4153 46.9833 16.8875 46.5086C17.3597 46.0339 17.625 45.3901 17.625 44.7188C17.625 44.0474 17.3597 43.4036 16.8875 42.9289C16.4153 42.4542 15.7749 42.1875 15.1071 42.1875C14.4394 42.1875 13.7989 42.4542 13.3267 42.9289C12.8546 43.4036 12.5893 44.0474 12.5893 44.7188C12.5893 45.3901 12.8546 46.0339 13.3267 46.5086C13.7989 46.9833 14.4394 47.25 15.1071 47.25Z" fill="#dcedfe"/>
</svg>
