<svg width="57" height="64" viewBox="0 0 57 64" fill="none" xmlns="http://www.w3.org/2000/svg">
<path d="M24.4286 0C22.269 0 20.1978 0.842854 18.6707 2.34314C17.1436 3.84344 16.2857 5.87827 16.2857 8V40C16.2857 42.1217 17.1436 44.1566 18.6707 45.6568C20.1978 47.1571 22.269 48 24.4286 48H48.8571C51.0168 48 53.0879 47.1571 54.615 45.6568C56.1421 44.1566 57 42.1217 57 40V17.656C56.9995 15.5344 56.1413 13.4999 54.6141 12L44.7857 2.344C43.259 0.843605 41.1882 0.000453099 39.0287 0H24.4286Z" fill="#dcedfe"/>
<path d="M0 24C0 21.8783 0.857905 19.8434 2.38499 18.3431C3.91207 16.8429 5.98324 16 8.14286 16V56H40.7143C40.7143 58.1217 39.8564 60.1566 38.3293 61.6569C36.8022 63.1571 34.731 64 32.5714 64H8.14286C5.98324 64 3.91207 63.1571 2.38499 61.6569C0.857905 60.1566 0 58.1217 0 56V24Z" fill="#dcedfe"/>
</svg>
