<svg width="52" height="52" viewBox="0 0 52 52" fill="none" xmlns="http://www.w3.org/2000/svg">
<path d="M46.2042 0H43.3604C45.3917 0.771674 46.4479 2.78886 46.4479 5.78079V46.2192C46.4479 49.2111 45.5 51.2689 43.3604 52H46.2042C49.4135 52 52 49.4007 52 46.2192V5.78079C52 2.59932 49.4135 0 46.2042 0Z" fill="#dcedfe"/>
<path d="M38.1198 0.0270759C37.9302 0.0135377 37.7406 0 37.551 0H5.78229C2.6 0 0 2.59932 0 5.78079V46.2192C0 49.4007 2.6 52 5.78229 52H37.5646C37.7542 52 37.9437 51.9865 38.1333 51.9729C41.0448 51.6886 43.3469 49.2111 43.3469 46.2192V5.78079C43.3333 2.78886 41.0312 0.311377 38.1198 0.0270759ZM19.5 25.9932L11.9167 21.661L4.33333 25.9932V4.3322H19.5V25.9932Z" fill="#dcedfe"/>
</svg>
